<?xml version="1.0" standalone="no"?>
<!DOCTYPE svg PUBLIC "-//W3C//DTD SVG 20010904//EN"
 "http://www.w3.org/TR/2001/REC-SVG-20010904/DTD/svg10.dtd">
<svg version="1.0" xmlns="http://www.w3.org/2000/svg"
 width="300.000000pt" height="208.000000pt" viewBox="0 0 300.000000 208.000000"
 preserveAspectRatio="xMidYMid meet">
<metadata>
Created by potrace 1.10, written by Peter Selinger 2001-2011
</metadata>
<g transform="translate(0.000000,208.000000) scale(0.100000,-0.100000)"
fill="#000000" stroke="none">
<path d="M1435 1788 c-4 -35 -5 -115 -3 -180 2 -64 0 -114 -4 -112 -9 6 0 -43
17 -93 12 -34 13 -35 24 -15 6 11 11 32 11 47 0 16 4 24 11 20 6 -4 8 -14 5
-22 -3 -8 -3 -26 0 -40 6 -22 8 -23 16 -9 12 21 28 20 28 -1 0 -15 4 -13 20 7
l20 25 0 -24 0 -24 24 22 c21 19 24 20 30 6 8 -23 8 -27 -4 -20 -6 3 -10 -4
-10 -17 0 -22 1 -21 21 7 11 17 31 51 44 77 14 26 29 49 34 52 5 3 0 -11 -10
-31 -11 -21 -19 -44 -19 -53 0 -9 -4 -20 -9 -26 -5 -5 -12 -20 -16 -34 -7 -22
-6 -23 8 -12 9 8 13 21 10 30 -4 15 -3 15 6 2 6 -8 11 -23 11 -34 0 -15 3 -16
15 -6 13 10 15 9 15 -10 0 -25 10 -22 14 4 1 9 25 51 53 94 53 82 86 143 79
149 -2 2 -14 -13 -27 -34 -13 -21 -26 -40 -29 -43 -4 -3 -19 -23 -33 -45 -39
-60 -72 -96 -80 -89 -11 11 -8 26 3 19 6 -3 10 -2 10 2 0 5 16 33 35 62 23 34
32 58 26 64 -5 5 -23 -16 -46 -57 -20 -36 -38 -66 -40 -66 -7 0 15 62 41 118
29 61 47 132 33 132 -5 0 -9 -8 -9 -17 0 -10 -14 -40 -29 -68 -16 -27 -42 -74
-56 -103 -15 -29 -29 -51 -32 -48 -5 5 1 25 27 91 4 11 13 40 20 65 7 25 22
79 35 120 24 78 39 150 32 150 -3 0 -15 -26 -27 -57 -12 -32 -30 -76 -41 -99
-10 -23 -19 -51 -19 -63 0 -12 -4 -30 -9 -40 -5 -9 -12 -43 -15 -75 -2 -32 -8
-61 -12 -64 -4 -4 -4 6 0 21 4 19 3 26 -4 22 -5 -3 -10 -14 -10 -24 0 -23 -29
-62 -31 -41 -1 8 -1 18 0 22 0 4 3 29 7 55 3 25 9 54 15 64 11 21 11 77 -1
104 -7 15 -9 10 -9 -23 -1 -24 -8 -57 -17 -74 -9 -17 -19 -58 -21 -90 -3 -32
-10 -58 -14 -58 -5 0 -9 6 -9 13 0 42 24 192 39 252 20 75 27 175 12 175 -10
0 -23 -58 -16 -70 3 -5 -1 -28 -9 -52 -34 -106 -46 -155 -44 -178 4 -58 -3
-140 -12 -140 -5 0 -8 12 -7 28 1 15 -2 41 -6 57 -5 20 -4 25 2 16 11 -17 19
119 10 165 -4 23 -6 18 -11 -26 -16 -147 -32 -239 -40 -234 -4 3 -5 23 -2 45
4 26 2 49 -7 65 -10 19 -10 30 -2 44 14 21 15 290 2 290 -4 0 -10 -28 -14 -62z
m315 -428 c-6 -12 -14 -20 -17 -17 -2 3 1 14 8 26 7 11 15 18 17 16 2 -2 -2
-13 -8 -25z"/>
<path d="M1224 1760 c3 -25 11 -90 17 -145 6 -55 13 -103 15 -106 2 -3 6 -21
9 -40 11 -68 27 -129 36 -135 5 -3 9 16 9 43 0 29 4 43 9 35 13 -21 0 190 -14
223 -11 26 -13 9 -10 -120 3 -156 1 -149 -24 70 -13 108 -28 185 -42 205 -7
11 -8 2 -5 -30z"/>
<path d="M1325 1775 c4 -11 9 -69 11 -130 2 -60 6 -130 9 -154 3 -24 0 -61 -7
-83 -9 -29 -9 -41 0 -50 9 -9 12 -3 12 24 0 50 10 74 22 56 7 -10 8 -8 4 5 -3
10 -6 54 -7 98 -1 43 -4 77 -8 74 -4 -2 -5 9 -3 26 6 42 -6 113 -24 135 -15
18 -15 18 -9 -1z m32 -272 c-2 -16 -4 -5 -4 22 0 28 2 40 4 28 2 -13 2 -35 0
-50z"/>
<path d="M1121 1713 c16 -74 38 -199 45 -253 5 -38 9 -49 14 -35 4 11 6 -13 6
-53 -1 -40 2 -76 7 -79 6 -4 8 14 5 46 -3 28 -4 51 -2 51 2 0 10 -21 18 -47
l15 -48 2 60 1 60 11 -42 c12 -53 27 -56 26 -5 0 28 -2 32 -8 17 -6 -15 -10
-6 -15 35 -9 77 -27 140 -38 140 -6 0 -7 -7 -4 -16 4 -10 9 -51 12 -93 7 -106
-10 -72 -30 59 -9 58 -23 123 -31 145 -7 22 -16 52 -19 68 -4 15 -10 27 -15
27 -4 0 -5 -17 0 -37z"/>
<path d="M1893 1708 c-6 -7 -14 -24 -18 -38 -4 -14 -15 -34 -25 -45 -9 -11
-23 -35 -30 -53 -7 -18 -20 -37 -29 -42 -12 -7 -13 -12 -4 -20 8 -9 20 2 50
46 21 33 47 81 57 107 18 48 18 68 -1 45z"/>
<path d="M1384 1538 c0 -97 4 -174 9 -171 4 2 8 30 8 61 l2 57 7 -58 c4 -32
11 -61 15 -65 4 -4 4 11 0 33 -4 22 -9 81 -11 130 -2 50 -4 92 -4 95 0 3 -5
-2 -10 -10 -7 -10 -8 -4 -4 20 3 19 1 46 -4 60 -7 17 -9 -28 -8 -152z"/>
<path d="M930 1682 c0 -5 6 -15 14 -21 7 -6 24 -39 36 -74 24 -68 66 -131 81
-122 5 4 6 -2 2 -11 -3 -10 -2 -15 3 -12 5 4 10 -8 11 -25 2 -18 14 -53 28
-80 30 -58 32 -71 5 -37 -10 14 -21 22 -24 19 -3 -3 8 -19 25 -35 l32 -29 -5
25 c-3 14 -9 34 -13 45 -5 12 4 6 22 -14 l30 -35 0 35 c0 19 -2 28 -4 22 -3
-7 -9 -13 -14 -13 -5 0 -4 11 2 23 11 24 7 44 -22 127 -25 73 -42 110 -51 110
-5 0 -4 -9 2 -19 5 -11 10 -31 10 -46 0 -14 9 -44 19 -66 23 -46 38 -125 23
-115 -5 3 -22 36 -37 73 -14 38 -37 79 -49 93 -13 14 -29 41 -37 60 -23 60
-89 150 -89 122z"/>
<path d="M1966 1604 c-50 -57 -75 -93 -71 -103 3 -8 3 -12 -1 -8 -9 9 -44 -22
-44 -38 0 -7 -7 -18 -16 -26 -20 -17 -81 -104 -66 -95 17 10 15 -6 -3 -30 -19
-26 -19 -29 6 -31 12 -1 18 1 15 4 -3 4 2 15 11 26 10 11 13 18 7 14 -6 -3
-11 1 -11 9 0 9 4 11 10 5 14 -14 104 65 129 113 11 21 31 50 44 64 13 15 22
28 20 30 -7 6 -75 -68 -91 -98 -9 -17 -33 -43 -55 -59 -22 -16 -36 -31 -32
-35 3 -4 -1 -4 -11 0 -9 3 -17 10 -17 16 0 5 4 7 10 3 9 -5 95 95 107 125 4 8
26 36 50 62 23 26 43 53 43 60 0 6 12 24 27 40 14 15 24 30 21 33 -3 3 -40
-33 -82 -81z"/>
<path d="M2109 1559 c-52 -61 -92 -101 -138 -134 -23 -16 -59 -44 -79 -62 -75
-66 -97 -85 -79 -73 9 7 17 9 17 5 0 -5 -8 -17 -17 -28 -18 -19 -18 -20 14 -3
18 9 36 16 40 16 24 0 44 13 35 22 -7 7 -19 4 -36 -7 -44 -29 -29 -2 20 35 25
19 60 47 76 63 17 15 34 27 38 27 21 0 94 72 124 123 40 66 33 75 -15 16z"/>
<path d="M760 1563 c0 -15 66 -74 74 -66 4 5 6 2 4 -6 -1 -7 5 -15 15 -16 22
-4 22 1 -5 29 -31 31 -88 69 -88 59z"/>
<path d="M981 1445 c41 -58 111 -187 104 -193 -5 -5 -43 34 -95 97 -50 60 -88
101 -95 101 -4 0 -3 -6 1 -12 4 -8 3 -10 -2 -5 -5 5 -9 13 -9 19 0 6 -8 12
-17 14 -28 4 -22 -8 36 -68 30 -30 59 -66 66 -78 16 -31 72 -91 78 -85 3 2 -1
11 -8 20 -18 22 -4 19 30 -7 38 -27 46 -19 24 23 -9 19 -18 43 -19 54 -4 35
-5 36 -15 30 -5 -3 -7 0 -5 8 6 15 -40 77 -82 110 -27 21 -26 20 8 -28z m-31
-68 c0 -6 -11 2 -25 17 -14 15 -25 30 -25 33 0 4 11 -4 25 -17 14 -13 25 -28
25 -33z m64 -72 c9 -13 16 -27 16 -31 0 -10 -30 17 -41 38 -15 27 6 22 25 -7z"/>
<path d="M2220 1440 c-14 -11 -29 -20 -35 -20 -15 -1 -94 -41 -140 -72 -22
-14 -55 -29 -74 -33 -25 -5 -30 -10 -20 -17 12 -8 11 -9 -1 -5 -8 2 -32 -7
-52 -20 -41 -25 -53 -29 -42 -12 3 6 -5 3 -20 -6 -15 -10 -24 -20 -22 -23 3
-3 12 0 20 7 9 8 15 8 18 1 2 -6 31 4 70 24 37 19 64 37 60 42 -4 4 -1 4 5 0
16 -9 114 45 106 58 -3 5 -1 6 5 2 15 -9 54 12 47 24 -3 6 1 7 9 4 17 -7 64
17 90 45 24 26 9 27 -24 1z"/>
<path d="M2054 1423 c-16 -16 -58 -47 -92 -70 -35 -23 -58 -44 -53 -47 5 -3
33 10 62 29 30 19 57 35 60 35 4 0 22 18 39 40 37 46 28 53 -16 13z"/>
<path d="M622 1351 c42 -21 88 -48 103 -59 39 -31 134 -74 146 -67 5 4 8 1 7
-6 -2 -7 18 -25 45 -39 26 -15 53 -32 60 -39 24 -26 -56 1 -108 36 -28 18 -65
35 -82 36 -17 1 -29 5 -27 8 2 4 -7 10 -20 13 -13 3 -32 9 -42 13 -42 16 2
-21 55 -46 31 -14 67 -34 81 -44 14 -10 52 -34 85 -54 58 -33 59 -34 24 -29
-20 2 -74 22 -120 43 -46 22 -102 47 -124 57 -44 21 -138 45 -172 46 -48 0
-20 -17 54 -34 51 -13 83 -26 98 -42 12 -13 30 -24 38 -24 9 0 45 -13 79 -29
35 -16 83 -35 106 -41 24 -6 41 -14 38 -17 -3 -3 -26 0 -52 6 -36 9 -49 9 -58
0 -8 -9 -7 -10 7 -6 11 4 16 3 12 -3 -3 -6 4 -10 17 -11 13 0 44 -1 71 -2 26
-2 47 0 47 3 0 4 -15 14 -32 23 l-33 18 44 -6 c45 -6 45 -6 26 15 -10 11 -49
37 -86 57 -38 20 -71 43 -74 51 -4 11 2 10 22 -4 53 -35 97 -54 127 -54 l29 0
-24 26 c-13 14 -41 35 -61 45 -63 32 -43 29 42 -7 44 -18 80 -29 80 -25 0 5
-27 34 -61 65 -65 60 -70 74 -9 26 31 -25 79 -50 95 -50 3 0 2 7 -1 15 -4 10
-13 13 -24 10 -12 -4 -31 5 -52 23 -18 16 -46 37 -63 46 -16 9 -52 33 -80 52
-27 19 -57 34 -65 33 -11 0 -10 -3 4 -12 11 -7 36 -29 55 -49 19 -21 39 -38
44 -38 20 0 121 -89 112 -98 -3 -3 -91 42 -229 116 -72 39 -199 92 -218 92 -7
-1 21 -18 64 -39z m233 -113 c14 -14 -86 37 -110 57 -11 8 7 2 40 -16 33 -17
65 -35 70 -41z m-45 -123 c30 -15 71 -34 90 -41 l35 -14 -35 6 c-19 3 -57 17
-85 31 -27 15 -63 29 -79 32 -16 4 -31 12 -33 18 -6 16 34 4 107 -32z"/>
<path d="M2072 1306 c-35 -12 -60 -25 -55 -30 4 -5 3 -6 -4 -2 -7 4 -35 -5
-62 -19 -28 -14 -64 -27 -81 -28 -17 -2 -36 -9 -42 -15 -8 -8 -2 -9 26 -1 47
13 58 5 15 -10 -40 -14 -35 -20 13 -14 28 4 36 9 33 22 -2 10 2 18 8 18 22 0
217 85 217 94 0 5 -1 9 -2 8 -2 0 -31 -10 -66 -23z"/>
<path d="M1295 1300 c-43 -7 -165 -75 -165 -91 0 -5 19 4 42 21 22 16 47 30
53 30 7 0 18 7 25 15 7 8 29 15 49 16 20 0 45 4 56 9 20 9 20 9 0 8 -11 0 -38
-4 -60 -8z"/>
<path d="M1569 1295 c18 -8 42 -15 52 -15 10 0 44 -13 76 -30 66 -34 70 -36
53 -15 -7 8 -16 15 -21 15 -5 0 -28 8 -52 18 -55 24 -110 42 -128 42 -8 -1 1
-7 20 -15z"/>
<path d="M2257 1278 c-6 -4 -34 -8 -61 -8 -27 0 -95 -14 -150 -31 -127 -39
-130 -40 -78 -34 23 3 42 4 42 2 0 -2 -31 -14 -70 -27 -38 -13 -70 -26 -70
-30 0 -3 15 -7 33 -9 103 -11 289 20 342 56 19 14 19 14 -5 9 -14 -3 -52 -7
-85 -11 -101 -9 -178 -27 -163 -37 8 -5 2 -6 -16 -2 -21 5 -27 4 -22 -5 6 -9
0 -10 -21 -5 -39 9 -40 12 -7 19 16 3 44 13 62 21 18 8 41 14 51 14 10 0 35 7
54 15 20 8 52 15 70 15 19 0 47 4 63 9 16 5 50 12 75 16 26 3 54 11 63 18 13
10 7 12 -39 13 -30 0 -61 -3 -68 -8z m-27 -22 c0 -9 -40 -13 -46 -5 -3 5 6 9
20 9 14 0 26 -2 26 -4z m-130 -26 c-53 -19 -99 -26 -88 -15 8 8 99 32 123 33
11 0 -5 -8 -35 -18z m78 -51 c-22 -12 -148 -28 -148 -18 0 7 97 25 145 27 18
1 18 0 3 -9z"/>
<path d="M1137 1173 c-4 -7 21 -9 172 -16 19 -1 36 3 37 8 4 12 -202 20 -209
8z"/>
<path d="M2180 1147 c-58 -10 -142 -20 -187 -21 -45 -1 -85 -4 -88 -8 -10 -9
178 -15 210 -6 27 7 108 19 235 34 25 3 52 10 60 15 25 14 -117 6 -230 -14z"/>
<path d="M1500 1149 c0 -14 60 -16 130 -4 l75 12 -102 -1 c-57 0 -103 -4 -103
-7z"/>
<path d="M1135 1140 c3 -5 0 -10 -7 -10 -7 0 -5 -5 6 -11 14 -9 15 -13 6 -19
-8 -5 -1 -10 21 -15 19 -4 40 -16 47 -26 22 -32 102 -18 102 16 0 19 4 19 40
0 17 -9 30 -11 30 -6 0 22 -60 41 -129 41 -39 0 -73 5 -76 11 -4 6 -13 8 -21
5 -8 -3 -11 0 -7 10 3 7 0 14 -7 14 -6 0 -8 -4 -5 -10z"/>
<path d="M1724 1139 c-12 -20 -77 -41 -147 -49 -38 -4 -74 -13 -80 -20 -9 -10
-7 -11 10 -6 15 5 28 1 42 -13 12 -12 34 -21 49 -21 28 0 62 26 62 46 0 5 19
9 43 7 23 -1 33 0 22 3 -31 9 -43 25 -16 22 18 -2 24 3 27 20 4 24 -1 29 -12
11z"/>
<path d="M2165 1094 c-38 -7 -88 -13 -110 -14 -38 -1 -39 -1 -20 -16 13 -10
29 -12 50 -7 16 4 41 6 54 6 19 -1 21 1 10 9 -10 7 -6 8 14 3 19 -4 26 -2 22
4 -3 6 0 9 7 6 8 -3 22 1 33 9 11 9 18 15 15 15 -3 -1 -36 -7 -75 -15z"/>
<path d="M2008 1094 c-4 -3 -32 -6 -65 -6 -42 -1 -51 -3 -33 -8 36 -11 84 -12
96 -1 5 5 18 11 29 14 19 5 19 5 -1 6 -11 0 -23 -2 -26 -5z"/>
<path d="M2325 1074 c-98 -18 -130 -21 -270 -28 -67 -3 -94 -2 -70 3 l40 8
-35 1 c-19 0 -44 -3 -55 -8 -17 -6 -15 -9 15 -14 19 -3 60 -7 90 -9 32 -2 13
-4 -45 -6 -66 -1 -93 -5 -79 -11 24 -9 143 -5 194 8 19 5 53 7 75 6 40 -3 40
-3 5 4 -20 4 -30 10 -24 14 6 4 25 3 43 -2 39 -11 127 2 196 29 60 24 36 25
-80 5z"/>
<path d="M770 1054 c25 -8 52 -12 60 -9 26 11 -10 25 -60 24 l-45 -1 45 -14z"/>
<path d="M1031 1048 c-5 -13 -11 -59 -14 -103 l-5 -80 9 70 c5 39 14 85 18
103 10 37 5 43 -8 10z"/>
<path d="M1830 1028 c0 -24 7 -61 16 -83 15 -40 15 -40 8 -5 -4 19 -6 56 -5
83 1 27 -2 47 -8 47 -6 0 -11 -19 -11 -42z"/>
<path d="M580 1040 l-75 -5 55 -8 c30 -5 73 -10 95 -12 80 -6 141 -18 177 -36
21 -11 48 -19 60 -19 13 0 30 -5 38 -11 18 -13 -55 -4 -128 15 -27 7 -72 9
-107 6 l-60 -6 60 -8 c33 -5 101 -19 150 -32 74 -18 83 -22 50 -23 -22 0 -60
4 -85 9 -66 14 -277 24 -265 12 10 -9 105 -27 220 -41 33 -4 71 -12 85 -18 30
-13 148 -14 129 -2 -8 5 -39 9 -69 10 -30 0 -71 6 -90 13 -31 12 -25 13 63 8
53 -3 97 -2 97 1 0 4 -21 13 -47 21 l-48 15 35 1 c19 2 38 2 43 1 4 0 7 3 7 7
0 8 -58 32 -79 32 -18 0 -85 30 -79 35 3 3 40 -4 84 -14 43 -11 80 -18 82 -16
9 8 -49 37 -64 31 -10 -4 -53 2 -98 13 -100 24 -140 27 -236 21z m219 -26 c9
-8 -65 -2 -84 7 -13 6 -4 7 30 3 28 -4 52 -8 54 -10z m-34 -114 c-8 -13 -45
-13 -65 0 -11 7 -3 10 28 10 26 0 41 -4 37 -10z"/>
<path d="M1390 1010 c0 -6 7 -13 15 -16 8 -4 15 -14 15 -24 0 -15 7 -18 40
-17 43 3 47 7 30 35 -10 15 -10 15 -5 -3 4 -18 0 -21 -25 -20 -18 0 -30 5 -30
13 0 7 -7 15 -15 18 -8 4 -12 10 -9 15 3 5 0 9 -5 9 -6 0 -11 -5 -11 -10z"/>
<path d="M2087 1000 c-20 -4 -40 -10 -44 -13 -12 -13 152 -6 207 8 l55 14 -90
-2 c-49 0 -107 -4 -128 -7z"/>
<path d="M1955 985 l-50 -13 55 5 c30 3 59 9 65 14 12 12 -9 10 -70 -6z"/>
<path d="M2210 970 c-14 -4 -74 -6 -135 -5 l-110 2 90 -6 c81 -6 86 -7 50 -14
-67 -14 -63 -16 20 -11 176 11 310 25 317 32 10 10 -198 11 -232 2z m50 -10
c-14 -4 -36 -8 -50 -8 l-25 0 25 8 c14 4 36 8 50 8 l25 0 -25 -8z"/>
<path d="M1933 940 c16 -5 47 -5 70 0 38 7 36 8 -28 8 -54 0 -63 -2 -42 -8z"/>
<path d="M1404 905 c-24 -20 -26 -24 -11 -25 11 0 33 -10 49 -22 l31 -21 43
24 44 23 -27 22 c-38 30 -91 29 -129 -1z m59 8 c4 -3 1 -13 -6 -21 -10 -13 -7
-14 27 -8 36 7 38 6 27 -8 -17 -20 -60 -21 -67 -1 -4 8 -13 15 -22 15 -13 0
-12 3 4 15 22 16 28 18 37 8z m52 -3 c3 -5 -3 -10 -14 -10 -12 0 -21 5 -21 10
0 6 6 10 14 10 8 0 18 -4 21 -10z"/>
<path d="M1917 910 c7 -8 27 -13 45 -13 126 1 211 6 235 14 18 6 -17 7 -102 3
-71 -3 -134 -6 -140 -6 -5 0 -19 3 -30 7 -16 7 -18 5 -8 -5z"/>
<path d="M1900 891 c0 -9 113 -28 214 -35 80 -6 243 9 313 30 l48 14 -60 -6
c-96 -11 -447 -13 -482 -4 -18 5 -33 5 -33 1z m148 -18 c-10 -2 -26 -2 -35 0
-10 3 -2 5 17 5 19 0 27 -2 18 -5z m160 -10 c-10 -2 -26 -2 -35 0 -10 3 -2 5
17 5 19 0 27 -2 18 -5z"/>
<path d="M1130 836 c-20 -7 -56 -26 -80 -43 -59 -40 -89 -55 -125 -64 l-30 -7
30 -1 c21 -1 60 17 120 54 93 57 141 69 164 41 10 -12 8 -19 -8 -35 -23 -23
-66 -29 -58 -8 2 6 10 11 16 10 6 -2 11 2 11 7 0 6 -6 10 -14 10 -20 0 -29
-31 -14 -46 11 -11 19 -10 45 3 80 39 29 110 -57 79z"/>
<path d="M1750 809 c-19 -12 -54 -39 -78 -61 -24 -22 -62 -48 -85 -59 -28 -12
-35 -19 -21 -19 25 0 100 47 134 85 32 34 95 67 123 63 28 -4 34 -40 11 -62
-22 -23 -43 -4 -23 20 12 15 12 17 -1 12 -20 -6 -19 -52 1 -56 26 -5 50 27 47
62 -3 28 -7 31 -38 34 -22 1 -48 -5 -70 -19z"/>
<path d="M1340 797 c-14 -8 -50 -30 -80 -51 -30 -20 -72 -39 -92 -42 -21 -4
-38 -10 -38 -15 0 -16 92 20 154 61 67 43 128 61 141 41 9 -15 -13 -41 -34
-41 -13 0 -13 2 -2 9 8 5 9 11 3 15 -5 3 -15 -1 -22 -9 -10 -12 -9 -16 3 -21
37 -14 77 17 64 50 -8 20 -61 21 -97 3z"/>
<path d="M1541 790 c-24 -11 -64 -38 -90 -59 -26 -22 -62 -46 -81 -55 -34 -16
-34 -16 -5 -10 17 3 45 18 64 32 108 86 167 115 178 86 8 -21 -4 -29 -22 -14
-12 10 -16 9 -21 -4 -9 -23 -1 -28 30 -20 22 5 27 11 24 33 -4 33 -22 36 -77
11z"/>
<path d="M1236 663 c-12 -13 -6 -53 9 -53 9 0 15 9 15 24 0 26 -12 40 -24 29z"/>
<path d="M1510 652 c0 -22 26 -49 32 -33 2 6 24 7 59 2 30 -4 61 -5 67 -3 21
7 13 25 -8 19 -11 -3 -18 -1 -15 3 3 5 1 11 -5 15 -6 3 -13 -1 -16 -9 -3 -9
-10 -13 -15 -10 -5 3 -6 11 -2 17 4 7 0 6 -10 -2 -14 -11 -17 -11 -17 0 0 11
-2 11 -10 -1 -5 -8 -10 -11 -10 -6 0 5 -7 3 -15 -4 -12 -10 -15 -10 -15 3 0 9
-4 19 -10 22 -5 3 -10 -3 -10 -13z"/>
<path d="M1270 644 c0 -12 7 -24 15 -28 19 -7 19 5 0 30 -14 19 -14 19 -15 -2z"/>
<path d="M1414 645 c-8 -20 3 -48 16 -40 13 8 13 55 0 55 -6 0 -13 -7 -16 -15z"/>
<path d="M1450 635 c0 -20 5 -25 24 -25 27 0 42 15 26 25 -6 4 -8 11 -5 16 4
5 4 9 0 9 -3 0 -10 -10 -15 -22 l-9 -23 0 23 c-1 30 -21 28 -21 -3z"/>
<path d="M1308 627 c4 -14 7 -16 13 -5 12 19 11 25 -5 25 -8 0 -11 -8 -8 -20z"/>
</g>
</svg>
