<?xml version="1.0" standalone="no"?>
<!DOCTYPE svg PUBLIC "-//W3C//DTD SVG 20010904//EN"
 "http://www.w3.org/TR/2001/REC-SVG-20010904/DTD/svg10.dtd">
<svg version="1.0" xmlns="http://www.w3.org/2000/svg"
 width="320.000000pt" height="126.000000pt" viewBox="0 0 320.000000 126.000000"
 preserveAspectRatio="xMidYMid meet">
<g transform="translate(0.000000,126.000000) scale(0.050000,-0.050000)"
fill="#000000" stroke="none">
<path d="M4892 2417 c-5 -15 -13 -74 -19 -132 -23 -223 -76 -276 -319 -324
-86 -17 -156 -40 -156 -51 0 -11 70 -34 156 -51 243 -48 296 -104 322 -345 20
-179 64 -169 96 22 40 238 94 290 334 326 216 32 211 62 -18 98 -223 36 -283
98 -318 327 -19 129 -58 194 -78 130z"/>
<path d="M3174 2102 l-157 -12 58 -55 57 -55 269 22 c258 22 944 12 1134 -15
67 -10 85 -6 85 18 0 34 -283 67 -740 85 -148 6 -333 14 -410 17 -77 3 -210 1
-296 -5z"/>
<path d="M2885 2045 c-21 -30 -62 -98 -92 -150 l-55 -95 -175 0 c-210 0 -204
5 -372 -295 l-115 -205 -454 0 -455 0 -46 85 c-26 47 -79 120 -119 163 -39 42
-58 73 -42 68 28 -9 122 -122 172 -208 21 -35 24 -35 83 14 217 183 778 385
1351 486 229 41 237 44 279 110 l43 68 -229 -11 c-698 -36 -1554 -266 -1779
-478 -27 -26 -56 -45 -63 -42 -18 5 -197 -193 -197 -219 0 -52 77 7 135 103
36 60 65 101 65 92 0 -26 -103 -199 -128 -216 -12 -8 -94 -15 -182 -15 -199
-1 -185 10 -329 -240 -138 -240 -141 -253 -65 -327 l57 -54 498 6 497 5 41 62
c23 35 66 106 97 158 42 72 62 90 79 73 13 -13 44 -23 69 -23 53 0 55 -11 16
-80 -38 -67 -38 -68 22 -139 l53 -63 872 2 c480 1 929 1 997 1 l124 -1 54 -95
c145 -253 210 -264 331 -55 l87 150 481 0 c546 0 507 -11 619 180 42 72 79
133 82 137 3 4 20 -2 39 -13 31 -16 27 -24 -30 -66 -36 -27 -88 -86 -115 -133
-65 -110 -95 -125 -256 -125 -93 0 -200 -20 -357 -67 -122 -37 -302 -83 -398
-103 -138 -29 -181 -46 -205 -83 -36 -55 -102 -61 -153 -15 -31 29 -55 30
-191 11 -429 -62 -1247 -76 -1614 -30 -78 10 -95 7 -88 -15 34 -101 1639 -129
2296 -40 478 64 868 159 1148 278 l132 57 -60 57 c-58 55 -82 154 -44 178 9 5
13 -17 8 -50 -20 -137 36 -158 429 -158 l347 0 57 79 c32 44 69 109 84 145 14
36 47 91 73 123 75 92 79 147 15 214 l-56 58 -930 1 c-511 0 -934 4 -939 9 -5
5 33 81 84 169 108 188 107 181 40 260 -55 66 -276 91 -368 42 -26 -14 -42
-13 -51 2 -8 13 -77 20 -176 18 -90 -2 -286 -3 -436 -2 l-273 2 -55 95 c-70
122 -147 205 -191 205 -20 0 -52 -25 -73 -55z m155 -115 l62 -109 -53 -95
c-42 -76 -44 -85 -9 -41 l43 55 319 0 c370 0 353 18 207 -230 -136 -232 -90
-211 -450 -211 -349 -1 -340 -4 -281 101 61 110 38 101 -27 -10 l-53 -90 -329
0 c-181 0 -329 4 -329 8 0 5 55 104 123 220 l122 212 166 0 c216 0 215 -1 310
172 93 168 93 168 179 18z m1020 -198 c0 -5 -45 -87 -100 -182 -108 -186 -116
-210 -71 -210 16 0 79 86 141 191 128 217 122 213 287 205 l124 -6 -120 -206
c-183 -317 -264 -464 -255 -464 4 0 36 45 70 100 l62 100 321 0 c236 0 321 -6
321 -24 0 -19 5 -19 24 0 32 32 656 34 656 2 0 -102 -113 -169 -261 -155 -64
7 -69 11 -64 72 10 125 -36 83 -186 -173 l-102 -172 -138 0 c-112 0 -138 6
-133 29 6 24 -1 23 -31 -5 -38 -34 -665 -55 -665 -21 0 6 28 60 61 120 34 59
57 107 52 107 -6 0 -80 -121 -164 -270 -176 -309 -166 -302 -247 -170 -80 129
-82 114 67 369 71 120 124 226 119 235 -23 36 -83 -28 -166 -177 -127 -227
-127 -227 -275 -227 -154 0 -154 -2 -27 214 55 93 95 178 89 187 -23 38 -69
-11 -160 -167 -135 -235 -134 -234 -282 -234 -152 0 -151 -14 -25 209 155 274
106 251 532 251 241 0 364 7 356 20 -7 11 -84 20 -171 20 -187 0 -183 -11 -67
190 158 274 131 250 288 250 77 0 140 -4 140 -8z m-3064 -283 c61 -107 62
-114 33 -172 -30 -58 -30 -59 8 -38 54 28 643 29 643 0 0 -100 -86 -158 -234
-159 -94 0 -118 21 -87 78 15 29 15 44 -2 54 -30 18 -76 -39 -194 -242 l-93
-160 -138 -6 c-132 -6 -137 -4 -126 37 l12 44 -40 -43 c-40 -43 -679 -69 -677
-27 0 8 57 109 125 225 l125 210 179 6 c206 7 206 7 300 176 87 155 86 155
166 17z m1388 -228 c-6 -24 1 -23 31 5 42 38 665 53 665 16 0 -23 -195 -360
-236 -407 -45 -53 -675 -54 -655 -1 12 32 10 32 -25 0 -38 -35 -664 -54 -664
-20 0 21 201 371 236 411 43 49 658 45 648 -4z m3856 24 c-1 -91 -82 -145
-219 -145 l-140 0 23 50 c43 96 -34 87 -91 -11 -51 -85 -30 -99 148 -99 182 0
180 2 94 -130 l-66 -100 -324 -5 c-179 -4 -325 1 -325 10 1 91 82 145 220 145
128 0 172 -18 120 -50 -31 -19 -24 -70 10 -70 28 0 110 109 110 145 0 8 -71
15 -159 15 -184 0 -197 10 -138 113 87 153 69 147 420 147 174 0 317 -7 317
-15z"/>
<path d="M2645 1675 c-53 -68 -187 -320 -176 -331 32 -32 250 265 251 341 0
24 -53 17 -75 -10z"/>
<path d="M3303 1640 c-49 -66 -288 -93 -308 -35 -5 14 -25 -6 -44 -45 -20 -40
-24 -59 -9 -45 17 16 88 25 199 25 183 0 202 9 257 115 37 71 -40 59 -95 -15z"/>
<path d="M3201 1447 c-47 -61 -53 -107 -13 -107 31 0 116 130 97 148 -22 22
-42 12 -84 -41z"/>
<path d="M4451 1188 c-49 -49 -76 -111 -58 -129 22 -22 50 -3 93 60 59 86 33
137 -35 69z"/>
<path d="M4720 1030 c-19 -23 -69 -30 -201 -30 -179 0 -259 -42 -259 -138 0
-43 58 -21 100 38 57 80 314 95 293 17 -13 -52 6 -32 65 68 46 76 47 99 2 45z"/>
<path d="M594 1155 c-73 -99 -180 -296 -167 -309 35 -35 251 264 253 349 0 44
-37 27 -86 -40z"/>
<path d="M2025 1206 c-23 -9 -85 -107 -85 -135 0 -34 64 -2 101 51 43 60 35
102 -16 84z"/>
<path d="M2681 1176 c-23 -24 -41 -51 -41 -60 0 -9 -63 -16 -140 -16 -97 0
-140 8 -140 24 0 14 -15 3 -33 -25 -59 -88 -87 -99 -259 -99 -170 0 -248 -42
-248 -133 0 -47 56 -29 100 33 47 66 285 93 305 35 5 -14 24 4 42 40 33 64 37
65 171 65 196 0 250 15 289 80 59 101 29 137 -46 56z"/>
<path d="M2540 935 c-48 -78 -50 -95 -10 -95 28 0 110 109 110 145 0 40 -65 8
-100 -50z"/>
<path d="M5280 1784 c0 -20 33 -67 72 -105 86 -81 147 -203 148 -294 l0 -65
168 0 c153 0 167 3 159 37 -45 170 -547 563 -547 427z"/>
<path d="M947 645 c25 -38 193 -113 212 -94 44 44 -35 109 -131 109 -50 0 -86
-7 -81 -15z"/>
<path d="M1336 506 c-5 -59 -20 -84 -73 -119 l-66 -45 75 -36 c56 -27 80 -53
92 -101 20 -78 41 -82 84 -15 26 39 50 50 112 50 91 0 92 3 47 72 -27 42 -29
63 -11 123 28 90 25 93 -63 69 -62 -18 -75 -14 -115 28 -61 65 -75 61 -82 -26z"/>
</g>
</svg>
