<?xml version="1.0" standalone="no"?>
<!DOCTYPE svg PUBLIC "-//W3C//DTD SVG 20010904//EN"
 "http://www.w3.org/TR/2001/REC-SVG-20010904/DTD/svg10.dtd">
<svg version="1.0" xmlns="http://www.w3.org/2000/svg"
 width="85.000000pt" height="86.000000pt" viewBox="0 0 85.000000 86.000000"
 preserveAspectRatio="xMidYMid meet">

<g transform="translate(0.000000,86.000000) scale(0.100000,-0.100000)"
fill="#000000" stroke="none">
<path d="M264 705 c-4 -8 -1 -58 5 -109 6 -52 11 -99 11 -104 0 -6 -42 -33
-94 -61 -52 -28 -98 -56 -102 -62 -12 -21 17 -34 124 -54 l107 -20 16 -85 c33
-179 41 -181 117 -44 l54 96 76 -8 c125 -13 157 -12 157 8 0 9 -33 53 -73 97
l-72 80 45 97 c65 139 57 148 -76 84 -46 -22 -89 -40 -97 -40 -8 0 -49 32 -92
70 -80 72 -97 81 -106 55z"/>
</g>
</svg>
