<?xml version="1.0" standalone="no"?>
<!DOCTYPE svg PUBLIC "-//W3C//DTD SVG 20010904//EN"
 "http://www.w3.org/TR/2001/REC-SVG-20010904/DTD/svg10.dtd">
<svg version="1.0" xmlns="http://www.w3.org/2000/svg"
 width="313.000000pt" height="82.000000pt" viewBox="0 0 313.000000 82.000000"
 preserveAspectRatio="xMidYMid meet">

<g transform="translate(0.000000,82.000000) scale(0.100000,-0.100000)"
fill="#000000" stroke="none">
<path d="M1363 779 c-584 -30 -1104 -155 -1256 -300 -99 -95 -69 -175 97 -255
124 -61 170 -59 82 3 -87 62 -96 132 -26 201 114 111 392 212 762 276 190 33
537 66 703 66 55 0 75 3 65 10 -17 11 -204 11 -427 -1z"/>
<path d="M2800 642 c0 -5 22 -24 49 -42 81 -56 99 -106 60 -169 -111 -182
-667 -334 -1354 -371 -109 -6 -201 -12 -203 -15 -12 -12 134 -15 330 -6 256
12 465 32 636 61 499 86 772 208 772 347 0 59 -86 133 -205 178 -71 27 -85 30
-85 17z"/>
</g>
</svg>
