<?xml version="1.0" standalone="no"?>
<!DOCTYPE svg PUBLIC "-//W3C//DTD SVG 20010904//EN"
 "http://www.w3.org/TR/2001/REC-SVG-20010904/DTD/svg10.dtd">
<svg version="1.0" xmlns="http://www.w3.org/2000/svg"
 width="79.000000pt" height="114.000000pt" viewBox="0 0 79.000000 114.000000"
 preserveAspectRatio="xMidYMid meet">

<g transform="translate(0.000000,114.000000) scale(0.100000,-0.100000)"
fill="#000000" stroke="none">
<path d="M386 975 c-12 -119 -36 -237 -57 -276 -34 -67 -111 -111 -221 -125
-58 -8 -49 -15 37 -34 79 -16 126 -41 162 -85 40 -47 50 -85 70 -245 l17 -135
12 110 c21 195 46 263 113 309 35 25 135 56 176 56 49 0 31 15 -31 27 -37 7
-92 24 -121 38 -85 42 -112 104 -137 320 l-12 110 -8 -70z"/>
</g>
</svg>
